<?xml version="1.0" standalone="no"?>
<!DOCTYPE svg PUBLIC "-//W3C//DTD SVG 20010904//EN"
 "http://www.w3.org/TR/2001/REC-SVG-20010904/DTD/svg10.dtd">
<svg version="1.0" xmlns="http://www.w3.org/2000/svg"
 width="443.000000pt" height="443.000000pt" viewBox="0 0 443.000000 443.000000"
 preserveAspectRatio="xMidYMid meet">
<metadata>
Created by potrace 1.11, written by Peter Selinger 2001-2013
</metadata>
<g transform="translate(0.000000,443.000000) scale(0.100000,-0.100000)"
fill="#000000" stroke="none">
<path d="M1966 4179 c-369 -39 -752 -199 -1046 -436 -89 -72 -257 -243 -321
-328 -270 -353 -419 -788 -419 -1225 0 -453 161 -906 447 -1260 72 -89 243
-257 328 -321 353 -270 788 -419 1225 -419 437 0 872 149 1225 419 85 64 256
232 328 321 583 722 595 1743 28 2485 -64 85 -232 256 -321 328 -411 332 -950
491 -1474 436z m412 -100 c643 -69 1205 -458 1494 -1033 229 -456 267 -992
102 -1467 -327 -944 -1316 -1475 -2278 -1223 -609 160 -1103 616 -1310 1212
-288 829 25 1734 769 2222 346 226 804 335 1223 289z"/>
<path d="M830 2232 l0 -692 40 0 40 0 2 567 3 567 110 -145 c61 -79 196 -256
300 -392 l190 -248 32 38 c47 56 373 479 476 618 49 66 92 121 96 123 3 1 5
-252 3 -563 l-3 -565 46 0 45 0 0 690 c0 380 -2 690 -4 690 -4 0 -299 -381
-610 -787 -39 -51 -74 -92 -77 -93 -6 0 -88 103 -265 335 -189 246 -407 530
-416 540 -4 5 -8 -302 -8 -683z"/>
<path d="M3120 2873 c-240 -29 -445 -177 -542 -393 -47 -104 -61 -179 -56
-310 7 -188 63 -315 199 -450 130 -131 276 -190 467 -190 124 0 185 12 281 56
79 37 78 32 33 86 -13 16 -17 16 -63 -8 -107 -54 -272 -70 -392 -39 -215 56
-385 235 -433 455 -28 130 -10 254 57 389 72 146 218 265 375 306 122 32 305
13 401 -40 l43 -23 24 31 c30 38 24 47 -44 76 -96 41 -254 66 -350 54z"/>
</g>
</svg>
